<?xml version="1.0" encoding="UTF-8" standalone="no"?>
<!DOCTYPE svg PUBLIC "-//W3C//DTD SVG 1.1//EN"
 "http://www.w3.org/Graphics/SVG/1.1/DTD/svg11.dtd">
<!-- Generated by graphviz version 16.0.0 (20260814.1018)
 -->
<!-- Title: blocked&#45;action Pages: 1 -->
<svg width="157pt" height="116pt"
 viewBox="0.00 0.00 157.00 116.00" xmlns="http://www.w3.org/2000/svg" xmlns:xlink="http://www.w3.org/1999/xlink">
<g id="graph0" class="graph" transform="scale(1 1) rotate(0) translate(4 112)">
<title>blocked&#45;action</title>
<polygon fill="white" stroke="none" points="-4,4 -4,-112 152.73,-112 152.73,4 -4,4"/>
<!-- n1 -->
<g id="node1" class="node">
<title>n1</title>
<g id="a_node1"><a xlink:title="n1">
<polygon fill="#cce5ff" stroke="black" points="128.86,-108 19.86,-108 19.86,-72 128.86,-72 128.86,-108"/>
<text xml:space="preserve" text-anchor="middle" x="74.36" y="-86.5" font-family="Helvetica,sans-Serif" font-size="10.00">Branch root[ACTIVE]</text>
</a>
</g>
</g>
<!-- n2 -->
<g id="node2" class="node">
<title>n2</title>
<g id="a_node2"><a xlink:title="n2">
<polygon fill="#f8d7da" stroke="black" points="148.73,-10.54 148.73,-25.46 105.17,-36 43.56,-36 0,-25.46 0,-10.54 43.56,0 105.17,0 148.73,-10.54"/>
<text xml:space="preserve" text-anchor="middle" x="74.36" y="-14.5" font-family="Helvetica,sans-Serif" font-size="10.00">delete_file[BLOCKED]</text>
</a>
</g>
</g>
<!-- n1&#45;&gt;n2 -->
<g id="edge1" class="edge">
<title>n1&#45;&gt;n2</title>
<path fill="none" stroke="black" d="M74.36,-71.7C74.36,-64.41 74.36,-55.73 74.36,-47.54"/>
<polygon fill="black" stroke="black" points="77.86,-47.62 74.36,-37.62 70.86,-47.62 77.86,-47.62"/>
</g>
</g>
</svg>
